<?xml version="1.0" encoding="UTF-8"?>
<svg version="1.1" xmlns="http://www.w3.org/2000/svg" width="2000" height="2000">
<path d="M0 0 C660 0 1320 0 2000 0 C2000 660 2000 1320 2000 2000 C1340 2000 680 2000 0 2000 C0 1340 0 680 0 0 Z " fill="#0B0B0A" transform="translate(0,0)"/>
<path d="M0 0 C2.40609819 0.0107557 4.81145283 0.00000037 7.2175293 -0.01269531 C46.30054106 -0.04949524 86.4586147 9.4868842 114.91772461 37.80322266 C123.03166475 46.11486003 129.03378691 55.02622005 134.34057617 65.26074219 C134.87424805 66.27523437 135.40791992 67.28972656 135.95776367 68.33496094 C143.35189951 83.29563474 147.34355397 99.75410558 149.34057617 116.26074219 C149.43338867 117.01170166 149.52620117 117.76266113 149.62182617 118.53637695 C154.26887472 161.8709465 150.55076301 211.26307046 122.84057617 246.76074219 C99.34976094 275.66785439 65.0905884 288.54889578 28.82301331 292.69212341 C-15.60053055 297.22275991 -65.09786569 292.54294778 -101.2121582 263.98339844 C-125.07688763 244.52031923 -137.18279695 217.05203873 -142.65942383 187.26074219 C-143.03430674 185.55238316 -143.40929823 183.84404795 -143.78442383 182.13574219 C-151.07295843 144.38820606 -146.5806724 99.68539237 -129.65942383 65.26074219 C-129.20051758 64.29265625 -128.74161133 63.32457031 -128.26879883 62.32714844 C-114.91503626 35.88823347 -90.21482458 18.24077425 -62.72192383 8.94824219 C-42.29666015 2.29800919 -21.42261096 -0.11333562 0 0 Z " fill="#0B0B0A" transform="translate(410.659423828125,845.7392578125)"/>
<path d="M0 0 C2.40609819 0.0107557 4.81145283 0.00000037 7.2175293 -0.01269531 C46.30054106 -0.04949524 86.4586147 9.4868842 114.91772461 37.80322266 C123.03166475 46.11486003 129.03378691 55.02622005 134.34057617 65.26074219 C134.87424805 66.27523437 135.40791992 67.28972656 135.95776367 68.33496094 C143.35189951 83.29563474 147.34355397 99.75410558 149.34057617 116.26074219 C149.43338867 117.01170166 149.52620117 117.76266113 149.62182617 118.53637695 C154.26887472 161.8709465 150.55076301 211.26307046 122.84057617 246.76074219 C99.34976094 275.66785439 65.0905884 288.54889578 28.82301331 292.69212341 C-15.60053055 297.22275991 -65.09786569 292.54294778 -101.2121582 263.98339844 C-125.07688763 244.52031923 -137.18279695 217.05203873 -142.65942383 187.26074219 C-143.03430674 185.55238316 -143.40929823 183.84404795 -143.78442383 182.13574219 C-151.07295843 144.38820606 -146.5806724 99.68539237 -129.65942383 65.26074219 C-129.20051758 64.29265625 -128.74161133 63.32457031 -128.26879883 62.32714844 C-114.91503626 35.88823347 -90.21482458 18.24077425 -62.72192383 8.94824219 C-42.29666015 2.29800919 -21.42261096 -0.11333562 0 0 Z M-87.08520508 60.27246094 C-97.30265512 72.13338549 -102.82300495 86.29376896 -106.65942383 101.26074219 C-106.94946289 102.3809375 -107.23950195 103.50113281 -107.53833008 104.65527344 C-110.69010832 117.49077613 -110.87234668 130.15809641 -110.8996582 143.30859375 C-110.90928323 146.09503986 -110.94035135 148.88072075 -110.97192383 151.66699219 C-111.07534351 168.79189073 -109.66114059 185.66055021 -103.84692383 201.88574219 C-103.52916992 202.84351563 -103.21141602 203.80128906 -102.8840332 204.78808594 C-95.86029503 225.18314491 -82.60028839 240.95566546 -63.65942383 251.26074219 C-62.67586914 251.80601562 -61.69231445 252.35128906 -60.67895508 252.91308594 C-41.72003494 262.55196772 -19.18527623 264.68810278 1.77807617 264.63574219 C2.56405182 264.6355307 3.35002747 264.63531921 4.15982056 264.63510132 C17.55644459 264.59928555 30.29207482 263.45737363 43.34057617 260.26074219 C44.49178955 259.99583984 44.49178955 259.99583984 45.66625977 259.72558594 C67.21999711 254.67063777 86.37651887 243.27823626 98.34057617 224.26074219 C101.33084202 219.07653128 103.91216521 213.72742642 106.34057617 208.26074219 C107.06760742 206.63265625 107.06760742 206.63265625 107.80932617 204.97167969 C109.21405742 201.45128614 110.3539131 197.91550302 111.34057617 194.26074219 C111.5366748 193.54305664 111.73277344 192.82537109 111.93481445 192.0859375 C115.79215334 176.91520972 115.73814816 161.49760627 115.77807617 145.94824219 C115.78733627 144.40973602 115.78733627 144.40973602 115.79678345 142.84014893 C115.90936156 113.69608923 111.51474623 82.77458623 91.34057617 60.26074219 C90.59807617 59.25011719 89.85557617 58.23949219 89.09057617 57.19824219 C77.18806913 43.29893298 57.67846083 36.24575265 40.34057617 32.26074219 C39.63255859 32.09703125 38.92454102 31.93332031 38.19506836 31.76464844 C-3.99013437 22.59642297 -55.98247451 28.19361044 -87.08520508 60.27246094 Z " fill="#95AE02" transform="translate(410.659423828125,845.7392578125)"/>
<path d="M0 0 C6.64814307 2.84633054 12.04834489 7.65478109 17.55712891 12.24267578 C20.27689517 14.48128173 23.0735379 16.61518919 25.875 18.75 C26.94942323 19.57395218 28.02364234 20.3981706 29.09765625 21.22265625 C29.89260498 21.83197998 29.89260498 21.83197998 30.70361328 22.45361328 C33.40899803 24.5284258 36.11057154 26.60818983 38.8125 28.6875 C42.00266812 31.1422444 45.19346522 33.59614421 48.38671875 36.046875 C54.85484167 41.01361431 61.30767858 45.9998333 67.75 51 C68.88634888 51.88026855 68.88634888 51.88026855 70.0456543 52.77832031 C84.84996772 64.2827485 84.84996772 64.2827485 85.59375 69.7578125 C85.83345935 75.65066738 85.00333669 80.71497793 80.89453125 85.25390625 C75.17112424 90.49720406 68.68140458 94.95600137 62.45703125 99.58203125 C58.71561142 102.37146663 55.03368093 105.2282354 51.375 108.125 C45.60772241 112.68794886 39.78219322 117.16913203 33.93017578 121.62280273 C30.10342085 124.53935211 26.29518442 127.47665935 22.51171875 130.44921875 C21.71604492 131.0733667 20.92037109 131.69751465 20.10058594 132.34057617 C18.58168526 133.53402067 17.06522931 134.73058613 15.55175781 135.9309082 C6.03328145 143.40328516 -1.8583682 148.04047043 -14.25 148.0625 C-14.97896484 148.08699219 -15.70792969 148.11148437 -16.45898438 148.13671875 C-21.67002779 148.1648612 -24.53220651 147.06828612 -28.6875 143.6875 C-36.12252802 136.07956435 -37.13655649 128.62851099 -37.10742188 118.47314453 C-37.11589142 117.3761322 -37.12436096 116.27911987 -37.13308716 115.14886475 C-37.15639712 111.53922788 -37.1574807 107.93001879 -37.15625 104.3203125 C-37.16335516 101.7997928 -37.17105468 99.27927471 -37.17932129 96.75875854 C-37.19275232 91.48155374 -37.19452318 86.20445823 -37.18847656 80.92724609 C-37.18183967 74.84903624 -37.20469678 68.77143382 -37.24179029 62.6933471 C-37.27631808 56.8200196 -37.28281376 50.94692915 -37.27870178 45.07351303 C-37.28039031 42.58652818 -37.29000688 40.09953512 -37.30784607 37.61261368 C-37.33009137 34.12814 -37.32030372 30.64511515 -37.30273438 27.16064453 C-37.31599762 26.14318146 -37.32926086 25.12571838 -37.34292603 24.0774231 C-37.25180873 16.26213012 -35.32112396 9.46398149 -29.78560638 3.7108326 C-21.90558239 -3.28757367 -9.8676995 -3.04303308 0 0 Z " fill="#96AF02" transform="translate(388.6875,919.3125)"/>
<path d="M0 0 C59.65467626 0 59.65467626 0 70.69140625 10.62890625 C77.32476452 17.79426318 80.43602575 26.54211973 80.265625 36.2265625 C79.27840964 46.53425227 73.76496607 53.5267362 67 61 C67.74636719 61.2784375 68.49273438 61.556875 69.26171875 61.84375 C79.6701487 66.23875038 87.09292488 75.74603266 91.30859375 85.9921875 C95.30739577 97.60452784 93.49727346 110.81986223 89 122 C83.31493413 133.3010124 73.80502403 141.62776888 62 146 C41.92693086 151.01826728 20.69084607 149 0 149 C0 99.83 0 50.66 0 0 Z " fill="#95AD02" transform="translate(642,835)"/>
<path d="M0 0 C0.80824219 0.25652344 1.61648438 0.51304687 2.44921875 0.77734375 C8.9826741 3.10857667 13.69739161 6.55265103 19 11 C19.33 7.04 19.66 3.08 20 -1 C25.61 -1 31.22 -1 37 -1 C37.09304313 12.56156354 37.16393847 26.12305002 37.20724869 39.68486881 C37.22804469 45.98346872 37.25621556 52.28184882 37.30175781 58.58032227 C37.34550138 64.66875276 37.36919704 70.756973 37.37950897 76.84554863 C37.38684942 79.15815982 37.4011823 81.47076066 37.42292023 83.78328133 C37.60638528 104.12601519 36.10273079 121.15412478 21.578125 136.640625 C10.57996943 146.70560374 -3.23776389 150.76047689 -17.875 150.5625 C-19.01324219 150.55299316 -20.15148437 150.54348633 -21.32421875 150.53369141 C-34.35523128 150.21163924 -44.17775961 146.25638699 -55 139 C-53.83760783 131.80684375 -52.25496388 124.93025566 -50 118 C-49.38125 118.680625 -48.7625 119.36125 -48.125 120.0625 C-39.53700777 128.57771263 -30.80345295 133.04189949 -18.75 133.4375 C-8.11829908 133.19223508 2.36365187 130.82812856 10 123 C19.24680764 112.00094343 19.42866812 100.6856265 19 87 C18.071875 87.886875 17.14375 88.77375 16.1875 89.6875 C11.64722762 93.59102687 6.53667184 95.82628531 1 98 C0.09765625 98.36867188 -0.8046875 98.73734375 -1.734375 99.1171875 C-12.53038541 102.0357262 -26.14883988 101.31174554 -36 96 C-36.91910156 95.51402344 -37.83820312 95.02804687 -38.78515625 94.52734375 C-50.84227626 87.51199057 -59.5130746 76.54121074 -63.56494141 63.13012695 C-66.54752166 48.52686503 -64.81941016 33.43467499 -57.05078125 20.83984375 C-49.36599721 9.70587477 -38.92862496 2.61239068 -26.1328125 -1.6171875 C-17.74536752 -3.12262634 -8.10197364 -2.63051092 0 0 Z " fill="#94AC02" transform="translate(988,885)"/>
<path d="M0 0 C3.1875 2.375 3.1875 2.375 5 4 C5.33 0.04 5.66 -3.92 6 -8 C11.28 -8 16.56 -8 22 -8 C22 25 22 58 22 92 C16.72 92 11.44 92 6 92 C5.67 88.04 5.34 84.08 5 80 C3.824375 81.03125 2.64875 82.0625 1.4375 83.125 C-10.95704454 92.5748779 -23.78463521 94.77111858 -39 93 C-50.96815264 90.60075721 -62.64151589 82.66237341 -69.6171875 72.6875 C-77.84670362 59.5857828 -81.52810054 45.16377515 -78.31640625 29.7109375 C-73.66631773 14.77662831 -64.74574071 3.45138972 -51.21875 -4.3359375 C-34.39931812 -13.03142049 -15.57300893 -9.87493778 0 0 Z " fill="#95AE02" transform="translate(1432,892)"/>
<path d="M0 0 C8.37143571 5.5283066 13.87196264 15.28669099 16 25 C16.40191821 30.3272606 16.35061402 35.63550513 16.29296875 40.97265625 C16.28736349 42.50678591 16.28309779 44.040921 16.28010559 45.57505798 C16.26872989 49.58477988 16.23932683 53.59416831 16.20599365 57.60375977 C16.17513452 61.7064971 16.16156663 65.80928908 16.14648438 69.91210938 C16.11444885 77.94157526 16.06174187 85.97070754 16 94 C10.06 94 4.12 94 -2 94 C-2.0093457 92.04255859 -2.01869141 90.08511719 -2.02832031 88.06835938 C-2.06393834 81.5782106 -2.11779363 75.08841023 -2.18390274 68.59850311 C-2.22329857 64.66623848 -2.25552535 60.73419513 -2.27099609 56.80175781 C-2.28621529 53.00188845 -2.32075237 49.20262775 -2.36830902 45.4030304 C-2.38306897 43.95833141 -2.39103791 42.5135455 -2.39188385 41.06877136 C-2.40307702 31.53183987 -2.96020534 24.80408014 -9.3125 17.25 C-16.51728183 11.21808963 -21.91452724 10.21744511 -31.17578125 10.62109375 C-38.67877521 11.3644956 -42.8267827 14.21495762 -47.67578125 19.828125 C-52.56690273 27.85014135 -52.47068151 35.62252409 -52.51171875 44.78125 C-52.52858938 46.20472743 -52.54674279 47.62819018 -52.56611633 49.05163574 C-52.61336435 52.77347219 -52.64333569 56.4952491 -52.66955566 60.21728516 C-52.69948942 64.02518467 -52.74597526 67.83287951 -52.79101562 71.640625 C-52.87676164 79.09366531 -52.94270084 86.54667675 -53 94 C-58.94 94 -64.88 94 -71 94 C-71.0093457 92.04255859 -71.01869141 90.08511719 -71.02832031 88.06835938 C-71.06393834 81.5782106 -71.11779363 75.08841023 -71.18390274 68.59850311 C-71.22329857 64.66623848 -71.25552535 60.73419513 -71.27099609 56.80175781 C-71.28621529 53.00188845 -71.32075237 49.20262775 -71.36830902 45.4030304 C-71.38306897 43.95833141 -71.39103791 42.5135455 -71.39188385 41.06877136 C-71.40122587 33.10908288 -71.64927877 26.87727483 -76 20 C-76.50288544 18.94250549 -76.50288544 18.94250549 -77.01593018 17.86364746 C-78.30008462 15.43169487 -79.48184484 15.02541093 -82 14 C-83.11955078 13.47019531 -83.11955078 13.47019531 -84.26171875 12.9296875 C-92.06251468 9.53803709 -97.99438244 8.74885448 -106.125 11.5 C-112.68240486 14.39627213 -116.47722482 18.85150146 -119.56005859 25.22558594 C-121.86034212 31.52551115 -121.48205217 38.16023749 -121.51171875 44.78125 C-121.52858938 46.20472743 -121.54674279 47.62819018 -121.56611633 49.05163574 C-121.61336435 52.77347219 -121.64333569 56.4952491 -121.66955566 60.21728516 C-121.69948942 64.02518467 -121.74597526 67.83287951 -121.79101562 71.640625 C-121.87676164 79.09366531 -121.94270084 86.54667675 -122 94 C-127.94 94 -133.88 94 -140 94 C-140 61 -140 28 -140 -6 C-134.39 -6 -128.78 -6 -123 -6 C-122.67 -2.04 -122.34 1.92 -122 6 C-120.68 4.7625 -119.36 3.525 -118 2.25 C-107.88784796 -6.76161814 -98.29072075 -7.6791648 -85.29345703 -7.16601562 C-75.16903503 -6.43314284 -68.89529324 -0.98534371 -62 6 C-61.11828125 6.87978516 -61.11828125 6.87978516 -60.21875 7.77734375 C-59.61546875 8.38255859 -59.61546875 8.38255859 -59 9 C-58.5875 8.48050781 -58.175 7.96101562 -57.75 7.42578125 C-42.22958044 -11.31651112 -20.00828162 -11.26350224 0 0 Z " fill="#94AD02" transform="translate(1314,890)"/>
<path d="M0 0 C9.83616523 7.41299324 17.93433742 17.95329348 20.40771484 30.28344727 C20.79445451 33.69289825 20.75293078 37.08607298 20.7265625 40.51171875 C20.72374268 41.20825562 20.72092285 41.90479248 20.71801758 42.62243652 C20.71069138 44.33163892 20.69948301 46.04082391 20.6875 47.75 C10.29134149 47.77313662 -0.10481093 47.79092185 -10.50098991 47.80181217 C-15.32798037 47.8070381 -20.15495325 47.81413052 -24.98193359 47.82543945 C-29.63735248 47.8362786 -34.29275444 47.84227903 -38.94818497 47.84487724 C-40.72724804 47.84672963 -42.50631016 47.8503467 -44.28536606 47.85573006 C-46.77083107 47.86295409 -49.25622546 47.86399036 -51.74169922 47.86352539 C-52.85300201 47.8689183 -52.85300201 47.8689183 -53.98675537 47.87442017 C-59.08439568 47.86405216 -59.08439568 47.86405216 -61.3125 46.75 C-58.92263695 57.41246594 -55.05739958 65.04632003 -45.9375 71.40625 C-36.85106693 76.68620435 -27.98690842 78.0640354 -17.59765625 76.28515625 C-9.18538341 74.03922559 -1.39425993 69.94915991 3.6875 62.75 C4.3475 62.75 5.0075 62.75 5.6875 62.75 C6.38828445 65.30951745 7.07335196 67.87159702 7.75 70.4375 C7.94916016 71.15873047 8.14832031 71.87996094 8.35351562 72.62304688 C10.25746284 79.93821249 10.25746284 79.93821249 8.6875 83.75 C-2.6991678 93.70747698 -18.707832 95.55867899 -33.17333984 94.92919922 C-46.35403874 93.82504115 -59.49090369 86.40539558 -68.3125 76.75 C-78.48530946 63.31383384 -82.15703384 49.13068613 -79.8515625 32.40625 C-77.15544189 19.08424229 -70.55429355 8.23897088 -59.6875 0.0625 C-41.04904465 -12.04832941 -18.66878139 -12.06160725 0 0 Z " fill="#94AD02" transform="translate(1629.3125,891.25)"/>
<path d="M0 0 C10.33614348 7.98913947 19.31893813 17.84446629 22 31 C22.23009683 34.15411256 22.19722926 37.28118816 22.12890625 40.44140625 C22.11960083 41.26805786 22.11029541 42.09470947 22.10070801 42.94641113 C22.0766408 44.96440979 22.03965803 46.98224753 22 49 C11.89915071 49.02316419 1.79830773 49.04093593 -8.30256271 49.05181217 C-12.99273364 49.05703205 -17.6828864 49.06411352 -22.37304688 49.07543945 C-26.8987979 49.08630004 -31.42453144 49.09228359 -35.95029449 49.09487724 C-37.67746506 49.09672576 -39.40463466 49.1003354 -41.13179779 49.10573006 C-43.54980034 49.11298254 -45.96773053 49.11398916 -48.38574219 49.11352539 C-49.10071869 49.11712067 -49.81569519 49.12071594 -50.55233765 49.12442017 C-53.84786372 49.11757486 -56.84875525 49.01912878 -60 48 C-56.9040844 59.36451007 -52.51113031 67.58185609 -42.23046875 73.78125 C-41.49441406 74.1834375 -40.75835938 74.585625 -40 75 C-39.39800781 75.3403125 -38.79601563 75.680625 -38.17578125 76.03125 C-29.61365132 80.04300719 -18.8848989 79.03359726 -10.1875 76.0625 C-3.67323355 73.27297501 1.11623516 69.06015364 6 64 C7.78596189 66.67894284 8.39169178 68.0031669 9.0703125 71.01171875 C9.33134766 72.14770508 9.33134766 72.14770508 9.59765625 73.30664062 C9.85869141 74.48516602 9.85869141 74.48516602 10.125 75.6875 C10.30675781 76.48478516 10.48851562 77.28207031 10.67578125 78.10351562 C11.12273427 80.06775651 11.56210416 82.03372014 12 84 C-2.55591051 94.20059871 -17.6960579 97.93340798 -35.41015625 95.5390625 C-49.80394702 92.62256139 -61.22701396 84.84958088 -69.875 73 C-76.20811292 63.39577451 -78.18588278 55.18529112 -78.25 43.8125 C-78.270625 42.91724609 -78.29125 42.02199219 -78.3125 41.09960938 C-78.38845333 27.95018918 -73.21757444 16.20345953 -64.1875 6.625 C-46.51406952 -9.78847493 -20.58758518 -13.24193479 0 0 Z " fill="#94AD02" transform="translate(1128,890)"/>
<path d="M0 0 C2.75 1.68359375 2.75 1.68359375 5.1875 3.4375 C5.93 3.94410156 6.6725 4.45070313 7.4375 4.97265625 C15.34943691 11.07144095 20.66740155 20.60953617 22.1875 30.4375 C22.45787696 35.65742432 22.42086403 40.86922895 22.3828125 46.09375 C22.3790766 47.60689099 22.37623235 49.12003442 22.37423706 50.63317871 C22.36664601 54.5918663 22.34703712 58.55040424 22.3248291 62.5090332 C22.30427244 66.55808489 22.29521446 70.60716104 22.28515625 74.65625 C22.26378635 82.58340924 22.22864183 90.51041869 22.1875 98.4375 C16.5775 98.4375 10.9675 98.4375 5.1875 98.4375 C5.1781543 96.67752686 5.16880859 94.91755371 5.15917969 93.10424805 C5.12346634 87.24875182 5.06955171 81.39357012 5.00359726 75.5383482 C4.96431177 71.99291488 4.93203188 68.44772288 4.91650391 64.90209961 C4.89827484 60.81324625 4.84824239 56.72529115 4.796875 52.63671875 C4.79564636 51.38106613 4.79441772 50.12541351 4.79315186 48.83171082 C4.61089231 37.73626511 2.21731128 27.54378567 -5.8125 19.4375 C-9.45210915 16.66753198 -13.2351255 14.86330228 -17.8125 14.4375 C-18.53179688 14.36273437 -19.25109375 14.28796875 -19.9921875 14.2109375 C-28.32184127 13.71790503 -33.8129996 16.91607583 -40.6875 21.25 C-45.9061926 26.62218356 -47.91684449 33.31054914 -48.01782227 40.65307617 C-48.03776749 41.9341777 -48.05771271 43.21527924 -48.07826233 44.53520203 C-48.0952454 45.93362304 -48.11212425 47.33204531 -48.12890625 48.73046875 C-48.14948166 50.1610829 -48.17047829 51.59169105 -48.19187927 53.02229309 C-48.24703933 56.78530006 -48.29647529 60.54836135 -48.34472656 64.3114624 C-48.39498593 68.15235216 -48.45064883 71.99316316 -48.50585938 75.83398438 C-48.61336675 83.36842472 -48.71432869 90.90293116 -48.8125 98.4375 C-54.7525 98.4375 -60.6925 98.4375 -66.8125 98.4375 C-66.8125 65.7675 -66.8125 33.0975 -66.8125 -0.5625 C-61.5325 -0.5625 -56.2525 -0.5625 -50.8125 -0.5625 C-50.3175 6.3675 -50.3175 6.3675 -49.8125 13.4375 C-48.86375 12.24125 -47.915 11.045 -46.9375 9.8125 C-42.87833215 5.15930759 -38.2951634 2.20527541 -32.8125 -0.5625 C-32.09449219 -0.93632813 -31.37648438 -1.31015625 -30.63671875 -1.6953125 C-21.41627596 -4.52648581 -8.66349368 -4.16514119 0 0 Z " fill="#95AE02" transform="translate(877.8125,885.5625)"/>
<path d="M0 0 C8.32101244 5.19542346 14.8262788 12.35798265 17.23828125 22.0703125 C18.89840204 32.65749791 18.04866771 42.53280403 11.734375 51.40625 C6.2848753 57.86848858 -0.72971834 64.21906611 -9.34765625 65.7109375 C-21.22059192 66.62308999 -29.47989128 65.25703332 -38.66015625 57.5234375 C-46.6317193 49.90227283 -50.32303933 41.42012994 -50.72265625 30.3984375 C-50.54402973 20.66329226 -46.96126393 12.81444204 -40.34765625 5.7109375 C-28.74492538 -5.09160503 -14.02774539 -7.7024226 0 0 Z " fill="#0C0C0A" transform="translate(1421.34765625,903.2890625)"/>
<path d="M0 0 C7.76882237 4.5177391 14.64444407 11.61111018 18 20 C20.60226742 30.73893456 19.56986594 41.69323684 14.125 51.3125 C11.90872839 54.11543174 9.62077861 56.57098568 7 59 C5.948125 60.0209375 5.948125 60.0209375 4.875 61.0625 C-3.34993368 66.60539009 -12.21467646 68.2185028 -22 67 C-31.82458083 64.31370908 -39.70481561 57.53848483 -45 49 C-49.24019713 40.98337731 -50.36904717 32.0040141 -48.3515625 23.15625 C-44.56738472 11.64199967 -37.72245487 4.50612547 -27 -1 C-18.05861475 -4.47913823 -8.74775364 -3.86359119 0 0 Z " fill="#0C0C0A" transform="translate(990,902)"/>
<path d="M0 0 C3.46040154 2.3538406 3.46040154 2.3538406 4.33447266 4.84082031 C4.72594771 7.2351532 4.49616896 8.76532417 3.91015625 11.109375 C3.72646484 11.86347656 3.54277344 12.61757813 3.35351562 13.39453125 C3.15435547 14.17183594 2.95519531 14.94914063 2.75 15.75 C2.55470703 16.54277344 2.35941406 17.33554687 2.15820312 18.15234375 C1.67625921 20.10362885 1.18297912 22.05210783 0.6875 24 C0.0275 24 -0.6325 24 -1.3125 24 C-2.21579218 22.80646968 -3.06031482 21.56818286 -3.875 20.3125 C-7.24708612 15.61655785 -11.14776502 13.4067665 -16.3125 11 C-16.9725 10.67 -17.6325 10.34 -18.3125 10 C-26.07986766 9.15991602 -26.07986766 9.15991602 -33.46875 11.046875 C-35.56527334 12.79397778 -37.09024794 14.55549588 -38.3125 17 C-38.75583503 23.33761146 -38.75583503 23.33761146 -36.3125 29 C-34.05097113 30.5537606 -34.05097113 30.5537606 -31.25 31.8125 C-30.18007812 32.32554687 -29.11015625 32.83859375 -28.0078125 33.3671875 C-24.66458305 34.88051577 -21.2628486 36.22169411 -17.84692383 37.56079102 C-8.1932632 41.36985544 1.03346231 45.40118747 5.875 55.21875 C8.35776097 63.71743177 7.84892998 73.90583704 4.00390625 81.890625 C-0.73996716 89.49208387 -7.75898119 93.86062816 -16.203125 96.6171875 C-28.26544849 98.80627584 -40.92029048 96.47532009 -51.3125 90 C-53.42145182 88.41941512 -55.35010326 86.76615706 -57.3125 85 C-56.21359517 78.08336373 -54.74680815 71.57263201 -52.3125 65 C-51.5390625 66.051875 -51.5390625 66.051875 -50.75 67.125 C-47.8647141 70.52815773 -44.8675464 73.31347425 -41.3125 76 C-40.48685547 76.62841797 -40.48685547 76.62841797 -39.64453125 77.26953125 C-35.04767248 80.14129953 -30.44277733 80.38104929 -25.125 80.4375 C-24.43543213 80.44765137 -23.74586426 80.45780273 -23.03540039 80.46826172 C-18.6469508 80.39279123 -15.74699348 79.76894264 -12.3125 77 C-9.42534181 72.77895717 -9.55326937 67.91501935 -10.3125 63 C-14.62756222 56.79709807 -21.96443317 54.50521247 -28.77416992 51.88867188 C-39.17321179 47.86937088 -49.26596458 43.17650456 -54.44921875 32.703125 C-56.9468538 24.88247587 -56.16617071 15.64616418 -52.69921875 8.25 C-47.8052979 0.3094411 -41.16281562 -3.98038504 -32.3515625 -6.578125 C-21.35133185 -8.85403479 -9.40374959 -5.89042502 0 0 Z " fill="#93AC02" transform="translate(1725.3125,889)"/>
<path d="M0 0 C37.86788155 0 37.86788155 0 47.75 9.25 C54.73965332 16.65456425 56.63750082 25.00644314 56.4140625 34.98828125 C55.92536233 42.33812093 52.16054236 48.32775024 47.625 53.9375 C32.78351463 65.59866707 20.41466253 63 0 63 C0 42.21 0 21.42 0 0 Z " fill="#0D0D0A" transform="translate(660,904)"/>
<path d="M0 0 C5.61 0 11.22 0 17 0 C17 10.89 17 21.78 17 33 C25.25 33 33.5 33 42 33 C42 37.95 42 42.9 42 48 C34.08 48 26.16 48 18 48 C18 76.05 18 104.1 18 133 C12.06 133 6.12 133 0 133 C0 104.95 0 76.9 0 48 C-7.59 48 -15.18 48 -23 48 C-23 43.05 -23 38.1 -23 33 C-15.41 33 -7.82 33 0 33 C0 22.11 0 11.22 0 0 Z " fill="#94AC02" transform="translate(1498,851)"/>
<path d="M0 0 C8.17389653 8.65471397 9.65689564 18.30953096 9.4375 29.9375 C8.72727609 37.46587349 6.45761735 45.24868923 1.07421875 50.78125 C-6.32847516 56.35923178 -14.75974014 58.47177429 -23.875 57.25 C-30.96401308 55.94958039 -36.13629606 52.66413007 -40.875 47.25 C-45.1781814 40.47186745 -46.07921238 34.51191812 -46.125 26.625 C-46.145625 25.76003906 -46.16625 24.89507813 -46.1875 24.00390625 C-46.24260704 14.8148069 -44.19559168 7.73212293 -37.84375 0.9765625 C-26.72732028 -8.77236991 -12.0209058 -7.31707309 0 0 Z " fill="#0C0C0A" transform="translate(719.875,1104.75)"/>
<path d="M0 0 C30.78787879 0 30.78787879 0 38.6875 6.0625 C40.74787328 10.67381162 40.73452356 15.04014785 40 20 C38.01031547 23.91075925 36.63466354 25.57689098 33 28 C31.68 28 30.36 28 29 28 C29 28.66 29 29.32 29 30 C30.051875 30.061875 31.10375 30.12375 32.1875 30.1875 C36.66337256 31.14137448 38.12282867 32.53046987 41 36 C43.19764647 40.39529293 42.66087702 46.43731859 41.45703125 51.10546875 C38.54563442 57.29731272 34.6775734 57.6612133 28 61 C18.76 61 9.52 61 0 61 C0 40.87 0 20.74 0 0 Z " fill="#90A802" transform="translate(1594,1100)"/>
<path d="M0 0 C5.94 0 11.88 0 18 0 C18 33 18 66 18 100 C12.06 100 6.12 100 0 100 C0 67 0 34 0 0 Z " fill="#95AE02" transform="translate(761,884)"/>
<path d="M0 0 C28.46153846 0 28.46153846 0 34.875 5.4375 C38.77509839 10.14055982 39.39159871 13.51330502 39.25 19.53125 C38.76697881 24.3010843 36.98332886 27.06709826 33.5625 30.3125 C31.20143532 31.86734747 29.69697274 32.42166827 27 33 C27.37809814 33.63502441 27.75619629 34.27004883 28.14575195 34.92431641 C29.87015948 37.82326673 31.59135498 40.72411159 33.3125 43.625 C33.90740234 44.62402344 34.50230469 45.62304688 35.11523438 46.65234375 C37.9089323 51.36573354 40.65763723 56.04467659 43 61 C38.13594731 62.12915509 38.13594731 62.12915509 35 61 C32.12970017 57.5268305 30.03888558 53.70554222 27.94042969 49.74072266 C26.56690576 47.19834841 25.02885304 44.76368927 23.5 42.3125 C21 38.25 21 38.25 21 36 C16.71 36 12.42 36 8 36 C8 44.25 8 52.5 8 61 C5.36 61 2.72 61 0 61 C0 40.87 0 20.74 0 0 Z " fill="#8AA102" transform="translate(804,1100)"/>
<path d="M0 0 C23 0 23 0 33 4 C38.02396808 9.14650389 38.34830541 12.95478587 38.28125 19.9453125 C37.87135683 24.39720776 36.76264866 26.49068954 34 30 C29.93548387 33 29.93548387 33 27 33 C30.31780809 40.2642535 34.36846174 46.94738492 38.69677734 53.640625 C42 58.79590028 42 58.79590028 42 61 C37.04238332 62.03261154 37.04238332 62.03261154 34 61 C30.38379526 56.41840579 28.1563264 50.89685998 25.72851562 45.61914062 C24.03476043 42.31641659 22.58481292 39.67207343 20 37 C15.35836586 35.64785123 11.91709707 35.79339928 7 36 C7 44.25 7 52.5 7 61 C4.69 61 2.38 61 0 61 C0 40.87 0 20.74 0 0 Z " fill="#93AB02" transform="translate(1301,1100)"/>
<path d="M0 0 C2.31 0 4.62 0 7 0 C9.1782102 5.53418043 10.87973793 10.98935166 12.26171875 16.76953125 C12.45723831 17.57235031 12.65275787 18.37516937 12.85420227 19.20231628 C13.26237685 20.88323919 13.66812681 22.56475258 14.0715332 24.24682617 C14.69034649 26.82435644 15.31824255 29.39955383 15.94726562 31.97460938 C16.34428623 33.6144536 16.74078922 35.25442325 17.13671875 36.89453125 C17.3241716 37.66328079 17.51162445 38.43203033 17.70475769 39.22407532 C18.41959516 42.22054072 19 44.90749368 19 48 C19.66 48 20.32 48 21 48 C21.10521973 47.27296875 21.21043945 46.5459375 21.31884766 45.796875 C22.4710669 38.33078145 24.19028002 31.22588679 26.375 24 C26.68445557 22.95779297 26.99391113 21.91558594 27.31274414 20.84179688 C29.40312247 13.84725865 31.56918706 6.88478696 34 0 C36.31 0 38.62 0 41 0 C43.18949164 4.87256809 44.92118141 9.73132333 46.375 14.875 C46.80590119 16.36851509 47.23689356 17.86200387 47.66796875 19.35546875 C47.88630371 20.11778809 48.10463867 20.88010742 48.32958984 21.66552734 C49.4338149 25.51061111 50.560526 29.349035 51.6875 33.1875 C51.88972168 33.88149902 52.09194336 34.57549805 52.30029297 35.29052734 C53.45221246 39.22393436 54.69436708 43.11530525 56 47 C56.22139648 46.10917725 56.44279297 45.21835449 56.67089844 44.30053711 C57.51234125 40.91747293 58.35493284 37.5346988 59.19824219 34.15209961 C59.55936232 32.70266565 59.92005624 31.25312542 60.28027344 29.8034668 C62.75603347 19.84164465 65.32280915 9.90974983 68 0 C70.64 0 73.28 0 76 0 C72.49252289 16.08469746 68.23714743 31.9329816 63.65039062 47.74023438 C62.38232648 52.14609087 61.18257348 56.57053616 60 61 C57.36 61 54.72 61 52 61 C47.33333333 44.66666667 42.66666667 28.33333333 38 12 C35.95213914 17.99911592 34.07414806 24.02552846 32.3359375 30.12109375 C32.09839752 30.94706558 31.86085754 31.77303741 31.61611938 32.6240387 C30.61136229 36.11793306 29.61104013 39.61309291 28.61035156 43.1081543 C27.87461494 45.67542061 27.13659323 48.24202215 26.3984375 50.80859375 C26.17239838 51.6012413 25.94635925 52.39388885 25.71347046 53.21055603 C24.11283663 58.77432673 24.11283663 58.77432673 23 61 C20.69 61 18.38 61 16 61 C13.42221043 53.67938913 11.5131755 46.28962173 9.6875 38.75 C7.26446697 28.8683751 4.68832776 19.05932073 1.77807617 9.30957031 C1.5432251 8.51518555 1.30837402 7.72080078 1.06640625 6.90234375 C0.85959229 6.21648193 0.65277832 5.53062012 0.43969727 4.82397461 C0 3 0 3 0 0 Z " fill="#90A802" transform="translate(872,1100)"/>
<path d="M0 0 C23 0 23 0 33 4 C38.26891276 9.39742282 38.29156195 13.47617478 38.2109375 20.796875 C37.84437882 26.36313646 36.1050475 28.91950912 32.1875 32.75 C26.45145375 36.79897382 21.40416872 37.28311064 14.625 37.125 C10.850625 37.063125 10.850625 37.063125 7 37 C7 44.92 7 52.84 7 61 C4.69 61 2.38 61 0 61 C0 40.87 0 20.74 0 0 Z " fill="#91AA02" transform="translate(1196,1100)"/>
<path d="M0 0 C4.62 -0.0825 9.24 -0.165 14 -0.25 C16.16175781 -0.30462402 16.16175781 -0.30462402 18.3671875 -0.36035156 C26.29109848 -0.42873721 32.55279511 -0.2768894 38.54272461 5.48364258 C42.7201375 10.21238915 43.41993065 14.26777801 43.33984375 20.36328125 C42.77754539 24.72594096 40.97008851 27.80087482 38 31 C35.71892707 32.68877717 33.59299925 33.77688715 31 35 C30.01 35.495 30.01 35.495 29 36 C26.82175039 36.08559118 24.64084745 36.10713412 22.4609375 36.09765625 C21.28837402 36.09515869 20.11581055 36.09266113 18.90771484 36.09008789 C16.664021 36.07643188 16.664021 36.07643188 14.375 36.0625 C9.63125 36.041875 4.8875 36.02125 0 36 C0 24.12 0 12.24 0 0 Z " fill="#0B0B0A" transform="translate(661,852)"/>
<path d="M0 0 C9.45513864 5.19167346 15.45454497 11.75989166 19 22 C19 22.66 19 23.32 19 24 C-2.45 24 -23.9 24 -46 24 C-44.51851106 15.11106638 -40.09826415 8.59959034 -33 3 C-22.2802506 -3.31437294 -11.62753636 -5.51323471 0 0 Z " fill="#0C0D0A" transform="translate(1114,901)"/>
<path d="M0 0 C7.25876316 6.23564372 11.67428982 11.51058264 13.2578125 21.01171875 C-8.1921875 21.01171875 -29.6421875 21.01171875 -51.7421875 21.01171875 C-49.85541719 11.57786718 -44.55595007 4.52386645 -36.7421875 -0.98828125 C-25.04680597 -8.07901164 -11.28884574 -8.18521721 0 0 Z " fill="#0C0D0A" transform="translate(1618.7421875,903.98828125)"/>
<path d="M0 0 C2.31 0 4.62 0 7 0 C9.78227556 6.12171578 12.35489068 12.29728881 14.78515625 18.56640625 C15.12751816 19.44473618 15.46988007 20.3230661 15.82261658 21.22801208 C16.90457386 24.00540249 17.98352428 26.78395016 19.0625 29.5625 C19.78952896 31.42910836 20.51674101 33.29564542 21.24414062 35.16210938 C21.94547648 36.96347783 22.64665373 38.76490805 23.34765625 40.56640625 C23.66960464 41.39370743 23.99155304 42.22100861 24.32325745 43.07337952 C24.93037736 44.6370514 25.53546101 46.20151587 26.13821411 47.76687622 C26.71704992 49.26679867 27.30233892 50.76424531 27.89376831 52.25924683 C29.08236993 55.31136019 30 57.69399254 30 61 C27.69 61 25.38 61 23 61 C20.69 55.06 18.38 49.12 16 43 C7.75 42.67 -0.5 42.34 -9 42 C-9.99 45.3 -10.98 48.6 -12 52 C-12.6847005 53.72663604 -13.40052994 55.44251228 -14.1875 57.125 C-14.53167969 57.87007812 -14.87585937 58.61515625 -15.23046875 59.3828125 C-15.48441406 59.91648437 -15.73835938 60.45015625 -16 61 C-18.31 61 -20.62 61 -23 61 C-20.67641358 53.81890193 -18.0545361 46.78464834 -15.33203125 39.74609375 C-14.89235519 38.60463394 -14.45267914 37.46317413 -13.99967957 36.28712463 C-12.60585204 32.66984759 -11.20922072 29.05366075 -9.8125 25.4375 C-8.86244427 22.97337897 -7.91257256 20.50918699 -6.96289062 18.04492188 C-4.6440556 12.02912528 -2.32292251 6.01421936 0 0 Z " fill="#8FA702" transform="translate(1262,1100)"/>
<path d="M0 0 C1.4540625 0.0309375 1.4540625 0.0309375 2.9375 0.0625 C6.36825268 6.59775908 9.07459039 13.29107304 11.703125 20.18359375 C12.36051666 21.89434837 12.36051666 21.89434837 13.03118896 23.6396637 C13.95075185 26.03500781 14.86838296 28.43109433 15.78417969 30.82788086 C17.19282214 34.51392664 18.60763173 38.19755983 20.0234375 41.88085938 C20.91702562 44.21079987 21.81026725 46.54087328 22.703125 48.87109375 C23.12805237 49.97827255 23.55297974 51.08545135 23.99078369 52.22618103 C24.37828796 53.24136307 24.76579224 54.2565451 25.16503906 55.30249023 C25.50827209 56.1999144 25.85150513 57.09733856 26.20513916 58.0219574 C26.9375 60.0625 26.9375 60.0625 26.9375 61.0625 C24.2975 61.0625 21.6575 61.0625 18.9375 61.0625 C16.6275 55.1225 14.3175 49.1825 11.9375 43.0625 C3.6875 42.7325 -4.5625 42.4025 -13.0625 42.0625 C-13.5575 44.5375 -13.5575 44.5375 -14.0625 47.0625 C-14.85656447 49.32665681 -15.69237149 51.57647209 -16.5625 53.8125 C-17.0059375 54.96234375 -17.449375 56.1121875 -17.90625 57.296875 C-19.0625 60.0625 -19.0625 60.0625 -20.0625 61.0625 C-22.39547433 61.10342937 -24.72955225 61.10491723 -27.0625 61.0625 C-22.83845808 48.72875012 -18.21380562 36.57893128 -13.40161133 24.46337891 C-12.23013653 21.51246444 -11.06499464 18.5591007 -9.90039062 15.60546875 C-9.1566176 13.72641695 -8.41249087 11.84750511 -7.66796875 9.96875 C-7.32009811 9.0866687 -6.97222748 8.2045874 -6.61381531 7.29577637 C-6.29290421 6.48983032 -5.9719931 5.68388428 -5.64135742 4.85351562 C-5.35967209 4.14312134 -5.07798676 3.43272705 -4.7877655 2.70080566 C-3.5236893 -0.15462203 -3.37819122 0.06894268 0 0 Z " fill="#8FA702" transform="translate(976.0625,1099.9375)"/>
<path d="M0 0 C2.64 0 5.28 0 8 0 C8 8.58 8 17.16 8 26 C18.23 26 28.46 26 39 26 C39 17.42 39 8.84 39 0 C41.64 0 44.28 0 47 0 C47 20.13 47 40.26 47 61 C44.36 61 41.72 61 39 61 C39 51.76 39 42.52 39 33 C28.77 33 18.54 33 8 33 C8 42.24 8 51.48 8 61 C5.36 61 2.72 61 0 61 C0 40.87 0 20.74 0 0 Z " fill="#869C03" transform="translate(1111,1100)"/>
<path d="M0 0 C8.17389653 8.65471397 9.65689564 18.30953096 9.4375 29.9375 C8.72727609 37.46587349 6.45761735 45.24868923 1.07421875 50.78125 C-6.32847516 56.35923178 -14.75974014 58.47177429 -23.875 57.25 C-30.96401308 55.94958039 -36.13629606 52.66413007 -40.875 47.25 C-45.1781814 40.47186745 -46.07921238 34.51191812 -46.125 26.625 C-46.145625 25.76003906 -46.16625 24.89507813 -46.1875 24.00390625 C-46.24260704 14.8148069 -44.19559168 7.73212293 -37.84375 0.9765625 C-26.72732028 -8.77236991 -12.0209058 -7.31707309 0 0 Z M-32.875 5.25 C-39.617947 13.74966214 -39.48690814 22.78199998 -38.875 33.25 C-37.70630909 39.42000054 -35.47462686 44.76298508 -30.15625 48.4375 C-24.36707147 51.74560202 -19.20763359 52.13712059 -12.73828125 50.8125 C-6.45886143 48.89877206 -2.83173762 44.82171628 0.265625 39.16796875 C1.56028931 34.77199495 1.49363667 30.49682725 1.5 25.9375 C1.53673828 24.56948242 1.53673828 24.56948242 1.57421875 23.17382812 C1.60337974 16.39389749 0.47248164 10.68789593 -4.39355469 5.69042969 C-11.97034414 -0.80856723 -25.16058999 -1.45818262 -32.875 5.25 Z " fill="#91A902" transform="translate(719.875,1104.75)"/>
<path d="M0 0 C2.31 0 4.62 0 7 0 C7 8.58 7 17.16 7 26 C17.56 26 28.12 26 39 26 C39 17.42 39 8.84 39 0 C41.31 0 43.62 0 46 0 C46 20.13 46 40.26 46 61 C43.69 61 41.38 61 39 61 C39 51.43 39 41.86 39 32 C28.44 32 17.88 32 7 32 C7 41.57 7 51.14 7 61 C4.69 61 2.38 61 0 61 C0 40.87 0 20.74 0 0 Z " fill="#92AB02" transform="translate(1470,1100)"/>
<path d="M0 0 C2.31 0 4.62 0 7 0 C7.0093457 1.29099609 7.01869141 2.58199219 7.02832031 3.91210938 C7.06836561 8.72820816 7.13416485 13.54367791 7.20751953 18.359375 C7.23564499 20.43871952 7.25690121 22.51816929 7.27099609 24.59765625 C7.29254238 27.59689892 7.33925276 30.59488745 7.390625 33.59375 C7.39185364 34.51490601 7.39308228 35.43606201 7.39434814 36.38513184 C7.5275247 42.33060108 8.51833521 47.07254464 12 52 C16.65163289 55.46168029 21.40252215 55.72037106 27 55 C30.57475915 54.04948601 33.30390099 52.74250561 35.875 50 C37.68068495 46.78989343 38.13445598 44.14274497 38.20532227 40.52856445 C38.22526749 39.62785721 38.24521271 38.72714996 38.26576233 37.79914856 C38.28247482 36.83031235 38.29918732 35.86147614 38.31640625 34.86328125 C38.33718735 33.86870407 38.35796844 32.87412689 38.37937927 31.84941101 C38.44479412 28.67051133 38.5037224 25.49152866 38.5625 22.3125 C38.60569288 20.15819452 38.64930742 18.00389746 38.69335938 15.84960938 C38.80046726 10.56649412 38.90224873 5.28329621 39 0 C41.64 0 44.28 0 47 0 C47.09953497 5.94070658 47.17178154 11.88091827 47.21972656 17.82226562 C47.23973216 19.83960435 47.2669456 21.8568859 47.30175781 23.87402344 C47.35076577 26.78855573 47.37307964 29.70231559 47.390625 32.6171875 C47.41127014 33.50614716 47.43191528 34.39510681 47.45318604 35.31100464 C47.45591941 43.0928323 45.58580005 49.88377942 40.5625 55.9375 C33.14290207 61.9093715 26.33801989 62.68294942 17 62 C10.84491799 60.92955095 7.44480178 57.89033882 3.4453125 53.23046875 C-0.40345346 47.29088668 -0.26921742 41.39588235 -0.1953125 34.5703125 C-0.1924826 33.57998016 -0.18965271 32.58964783 -0.18673706 31.56930542 C-0.1755847 28.42107824 -0.15048907 25.27314051 -0.125 22.125 C-0.11496382 19.98437912 -0.10583908 17.84375376 -0.09765625 15.703125 C-0.07566158 10.46865203 -0.04223333 5.2343467 0 0 Z " fill="#8EA502" transform="translate(742,1100)"/>
<path d="M0 0 C2.31 0 4.62 0 7 0 C7.00586624 0.55043976 7.01173248 1.10087952 7.01777649 1.66799927 C7.08184603 7.41116189 7.16630024 13.15377116 7.26245117 18.89648438 C7.29564938 21.0380116 7.32369714 23.17962524 7.34643555 25.32128906 C7.38007504 28.40467054 7.43239654 31.48726369 7.48828125 34.5703125 C7.49467117 35.52366486 7.5010611 36.47701721 7.50764465 37.45925903 C7.62264491 42.6908783 8.0156214 46.51004038 11 51 C15.82517452 54.74197207 19.5577169 55.59196612 25.6328125 55.32421875 C29.97876117 54.72898156 32.88431564 53.23109999 35.8125 50 C37.70709764 46.80909871 38.13407676 44.162085 38.20532227 40.52856445 C38.22526749 39.62785721 38.24521271 38.72714996 38.26576233 37.79914856 C38.28247482 36.83031235 38.29918732 35.86147614 38.31640625 34.86328125 C38.33718735 33.86870407 38.35796844 32.87412689 38.37937927 31.84941101 C38.44479412 28.67051133 38.5037224 25.49152866 38.5625 22.3125 C38.60569288 20.15819452 38.64930742 18.00389746 38.69335938 15.84960938 C38.80046726 10.56649412 38.90224873 5.28329621 39 0 C41.31 0 43.62 0 46 0 C46.1272904 6.5468254 46.21455591 13.09332902 46.2746582 19.64111328 C46.29972607 21.86616949 46.33378944 24.09114398 46.37719727 26.31591797 C46.43818809 29.52331765 46.46628784 32.72962407 46.48828125 35.9375 C46.51408768 36.92427734 46.5398941 37.91105469 46.56648254 38.92773438 C46.56917827 45.64015726 45.15991292 49.73396697 41 55 C40.401875 55.763125 39.80375 56.52625 39.1875 57.3125 C32.28564509 62.63678807 24.40424925 62.92562445 16 62 C9.80247921 60.30701871 5.47310101 56.32025983 2 51 C-0.69975042 46.03394533 -0.25315107 40.94244361 -0.1953125 35.44921875 C-0.1924826 34.43527542 -0.18965271 33.42133209 -0.18673706 32.37666321 C-0.17556625 29.14682073 -0.15046711 25.91725829 -0.125 22.6875 C-0.1149662 20.49414464 -0.10584105 18.30078492 -0.09765625 16.10742188 C-0.07563707 10.73818614 -0.04219023 5.36911308 0 0 Z " fill="#91A902" transform="translate(1532,1100)"/>
<path d="M0 0 C0.76868408 -0.0103125 1.53736816 -0.020625 2.3293457 -0.03125 C7.1915137 0.04476261 10.48571586 0.87757147 14.75 3.4375 C14.09 5.0875 13.43 6.7375 12.75 8.4375 C11.88375 8.2725 11.0175 8.1075 10.125 7.9375 C-1.41317898 6.29214757 -1.41317898 6.29214757 -12.375 9.125 C-17.5989514 13.32687396 -20.77373469 17.83147825 -22.25 24.4375 C-23.13600128 32.78512648 -22.48825506 40.08570482 -18.25 47.4375 C-14.98855447 51.35123464 -11.96689333 54.18812073 -6.77636719 54.66455078 C-5.87563477 54.65407715 -4.97490234 54.64360352 -4.046875 54.6328125 C-3.0671875 54.62636719 -2.0875 54.61992188 -1.078125 54.61328125 C-0.06234375 54.59652344 0.9534375 54.57976562 2 54.5625 C3.03125 54.55347656 4.0625 54.54445313 5.125 54.53515625 C7.66690287 54.51162011 10.2083328 54.47874023 12.75 54.4375 C12.75 56.4175 12.75 58.3975 12.75 60.4375 C4.23075366 63.16365883 -5.73836684 64.2847465 -14.1875 60.8125 C-21.38341681 56.98716132 -26.56909773 52.27841847 -29.25 44.4375 C-31.45511043 33.95952562 -31.92325278 21.83119451 -26.25 12.4375 C-22.65802526 6.96855173 -18.63720365 3.22013994 -12.40234375 1.05859375 C-8.25152115 0.24077368 -4.22388718 0.04778056 0 0 Z " fill="#90A802" transform="translate(1085.25,1099.5625)"/>
<path d="M0 0 C15.18 0 30.36 0 46 0 C46 2.31 46 4.62 46 7 C39.73 7 33.46 7 27 7 C27 24.82 27 42.64 27 61 C24.69 61 22.38 61 20 61 C20 43.18 20 25.36 20 7 C13.4 7 6.8 7 0 7 C0 4.69 0 2.38 0 0 Z " fill="#8DA402" transform="translate(1003,1100)"/>
<path d="M0 0 C2.64 0 5.28 0 8 0 C8.37809814 0.73637695 8.75619629 1.47275391 9.14575195 2.23144531 C10.55735086 4.97630513 11.97226227 7.71942425 13.3894043 10.46142578 C14.30056543 12.22687579 15.20792586 13.99428569 16.11523438 15.76171875 C16.69208984 16.87675781 17.26894531 17.99179688 17.86328125 19.140625 C18.39219971 20.16704102 18.92111816 21.19345703 19.46606445 22.25097656 C20.82331421 24.68335477 22.26558316 26.82686435 24 29 C24.44915771 28.15703369 24.89831543 27.31406738 25.36108398 26.44555664 C27.02349011 23.32674536 28.68826088 20.20920164 30.35375977 17.09204102 C31.0751122 15.74115055 31.79581755 14.38991436 32.51586914 13.03833008 C33.54925486 11.09886493 34.58493954 9.16064343 35.62109375 7.22265625 C35.94403915 6.61535172 36.26698456 6.00804718 36.59971619 5.38233948 C38.88612829 1.11387171 38.88612829 1.11387171 40 0 C42.33297433 -0.04092937 44.66705225 -0.04241723 47 0 C45.72414361 4.12998595 44.17551878 7.80029138 42.1015625 11.58984375 C41.53953125 12.62173828 40.9775 13.65363281 40.3984375 14.71679688 C39.81320312 15.77962891 39.22796875 16.84246094 38.625 17.9375 C38.0475 18.99646484 37.47 20.05542969 36.875 21.14648438 C36.31039063 22.17966797 35.74578125 23.21285156 35.1640625 24.27734375 C34.61943359 25.28063721 34.07480469 26.28393066 33.51367188 27.31762695 C32 30 32 30 30.72070312 31.87573242 C27.01691705 37.3258503 27.332901 43.08803738 27.25 49.4375 C27.20552734 51.1071582 27.20552734 51.1071582 27.16015625 52.81054688 C27.08985868 55.54043572 27.03696337 58.26949039 27 61 C24.69 61 22.38 61 20 61 C20.03254883 60.35788574 20.06509766 59.71577148 20.09863281 59.05419922 C20.74591014 42.02233635 17.71349731 30.60547511 8.49316406 16.31591797 C6.47377291 13.18381455 4.61452147 9.97646616 2.75 6.75 C1.93789062 5.41195313 1.93789062 5.41195313 1.109375 4.046875 C0 2 0 2 0 0 Z " fill="#91A902" transform="translate(1392,1100)"/>
<path d="M0 0 C2.64 0 5.28 0 8 0 C12.95 9.57 17.9 19.14 23 29 C25.46644194 25.71141075 27.26972455 22.76370286 29.13671875 19.140625 C30.00200195 17.46806641 30.00200195 17.46806641 30.88476562 15.76171875 C31.77711914 14.02341797 31.77711914 14.02341797 32.6875 12.25 C33.29979452 11.06362877 33.91242135 9.87742899 34.52539062 8.69140625 C36.02020428 5.79594043 37.51160562 2.89876936 39 0 C41.64 0 44.28 0 47 0 C45.43462497 4.18424398 43.44801049 8.08603325 41.33984375 12.015625 C40.81494102 13.0002774 40.81494102 13.0002774 40.2794342 14.00482178 C39.54357713 15.3837647 38.80644801 16.7620295 38.06811523 18.13964844 C36.93461792 20.25537955 35.80589558 22.37360712 34.67773438 24.4921875 C33.96121815 25.8334833 33.24443086 27.17463433 32.52734375 28.515625 C32.18879868 29.15099182 31.8502536 29.78635864 31.50144958 30.440979 C29.11545392 34.88454608 29.11545392 34.88454608 28 36 C27.84213692 37.85174706 27.74892644 39.7090911 27.68359375 41.56640625 C27.64169922 42.69111328 27.59980469 43.81582031 27.55664062 44.97460938 C27.51732422 46.15861328 27.47800781 47.34261719 27.4375 48.5625 C27.39431641 49.75037109 27.35113281 50.93824219 27.30664062 52.16210938 C27.20016454 55.10794784 27.09815159 58.0538743 27 61 C24.69 61 22.38 61 20 61 C20.05873291 60.44054688 20.11746582 59.88109375 20.17797852 59.3046875 C21.79714617 39.72515343 14.5443785 26.10293208 4.79272461 9.83222961 C2.88155051 6.63514314 1.27293099 3.50291903 0 0 Z " fill="#92AA02" transform="translate(621,1100)"/>
<path d="M0 0 C14.85 0 29.7 0 45 0 C45 2.31 45 4.62 45 7 C38.73 7 32.46 7 26 7 C26 24.82 26 42.64 26 61 C23.69 61 21.38 61 19 61 C19 43.18 19 25.36 19 7 C12.73 7 6.46 7 0 7 C0 4.69 0 2.38 0 0 Z " fill="#90A802" transform="translate(1346,1100)"/>
<path d="M0 0 C2.805 -0.0825 5.61 -0.165 8.5 -0.25 C9.8003418 -0.30462402 9.8003418 -0.30462402 11.12695312 -0.36035156 C16.82283942 -0.44039348 21.3191845 0.6326497 26 4 C28.49455917 7.74183875 28.37606522 9.56243036 28 14 C26.71805556 17.70339505 25.77759188 19.48363039 22.5 21.66015625 C17.91156943 23.41666483 13.98079906 23.32899182 9.125 23.1875 C6.11375 23.125625 3.1025 23.06375 0 23 C0 15.41 0 7.82 0 0 Z " fill="#10110A" transform="translate(1601,1132)"/>
<path d="M0 0 C15.2173913 -0.64073227 15.2173913 -0.64073227 22 4 C24.84445975 8.26668963 24.49639964 11.99597135 24 17 C22.66858947 20.68095852 21.46994264 21.69714807 18.1875 23.8125 C12.4769273 26.01267736 5.97977579 25.17085074 0 25 C0 16.75 0 8.5 0 0 Z " fill="#0E0F0A" transform="translate(1203,1106)"/>
<path d="M0 0 C16.82142857 -0.52566964 16.82142857 -0.52566964 23 4.6875 C25.03662675 9.39719936 24.45053457 13.59539222 22.9375 18.3125 C20.41012247 21.81821723 18.15782689 23.20251517 14 24 C9.30141249 24.23133089 4.71066834 24.13459052 0 24 C0 16.08 0 8.16 0 0 Z " fill="#0F0F0A" transform="translate(1308,1106)"/>
<path d="M0 0 C2.660625 -0.061875 5.32125 -0.12375 8.0625 -0.1875 C8.8862915 -0.21481201 9.71008301 -0.24212402 10.55883789 -0.27026367 C15.79270079 -0.32855001 19.38558453 0.47823664 24 3 C26.48386059 6.72579089 26.3804212 8.58711402 26 13 C24.29930423 16.82656549 22.84495265 18.45217779 19 20 C16.80175781 20.22705078 16.80175781 20.22705078 14.453125 20.1953125 C13.69161133 20.19031738 12.93009766 20.18532227 12.14550781 20.18017578 C10.71223145 20.15286377 10.71223145 20.15286377 9.25 20.125 C4.67125 20.063125 4.67125 20.063125 0 20 C0 13.4 0 6.8 0 0 Z " fill="#10110A" transform="translate(1601,1106)"/>
<path d="M0 0 C2.51625 -0.061875 5.0325 -0.12375 7.625 -0.1875 C8.79603271 -0.22846802 8.79603271 -0.22846802 9.99072266 -0.27026367 C14.71682416 -0.32605543 17.90404314 0.39749203 22 3 C23.96881005 6.93762009 23.45834498 11.70766117 23 16 C20.90219061 19.61691275 19.95125774 20.68291409 16 22 C13.25917841 22.07056698 10.55153023 22.09336154 7.8125 22.0625 C5.234375 22.041875 2.65625 22.02125 0 22 C0 14.74 0 7.48 0 0 Z " fill="#0B0B0A" transform="translate(812,1107)"/>
<path d="M0 0 C3.12291165 1.68012647 5.39164837 3.78329674 7 7 C7.50872093 13.10465114 7.06705978 16.11952826 3 21 C-1.24740799 23.83160532 -5.01346043 23.64522317 -10 23 C-13.21725013 21.1902968 -14.54322539 19.82654453 -16.3125 16.625 C-17.56061472 11.85947107 -17.62805569 9.12616881 -15.1875 4.75 C-10.87529099 -0.67106276 -6.54982325 -1.02722383 0 0 Z " fill="#93AC02" transform="translate(775,843)"/>
<path d="M0 0 C2.84643436 1.42321718 2.91683816 3.04826284 3.9453125 6.0234375 C4.29980469 7.044375 4.65429688 8.0653125 5.01953125 9.1171875 C5.38433594 10.19226562 5.74914063 11.26734375 6.125 12.375 C6.49753906 13.44234375 6.87007812 14.5096875 7.25390625 15.609375 C10 23.59618246 10 23.59618246 10 27 C3.73 27 -2.54 27 -9 27 C-8.51789063 25.63746094 -8.03578125 24.27492188 -7.5390625 22.87109375 C-6.90093364 21.05993389 -6.26291884 19.24873384 -5.625 17.4375 C-5.30789063 16.54224609 -4.99078125 15.64699219 -4.6640625 14.72460938 C-2.94991849 9.85001235 -1.35445622 4.98686155 0 0 Z " fill="#10110A" transform="translate(1265,1108)"/>
<path d="M0 0 C0.66 0 1.32 0 2 0 C3.34425253 3.41247084 4.67347169 6.83060439 6 10.25 C6.3815625 11.21808594 6.763125 12.18617187 7.15625 13.18359375 C7.5171875 14.11816406 7.878125 15.05273438 8.25 16.015625 C8.58515625 16.87446289 8.9203125 17.73330078 9.265625 18.61816406 C10 21 10 21 10 25 C4.06 25 -1.88 25 -8 25 C-7.32099038 20.92594228 -6.77170341 17.97579451 -5.37109375 14.2578125 C-5.05849609 13.41992188 -4.74589844 12.58203125 -4.42382812 11.71875 C-4.09833984 10.8628125 -3.77285156 10.006875 -3.4375 9.125 C-3.10814453 8.24585938 -2.77878906 7.36671875 -2.43945312 6.4609375 C-1.63113386 4.30541947 -0.81787706 2.15190559 0 0 Z " fill="#0F100A" transform="translate(975,1110)"/>
</svg>
